# xmcd
#
# Track frame offsets: 
#        150
#        17435
#        33505
#        57059
#        128663
#        150794
#        170221
#        209160
#        270423
#        295087
#
# Disc length: 4245 seconds
#
# Revision: 0
# Processed by: cddbd v1.5.1PL2 Copyright (c) Steve Scherf et al.
# Submitted via: ExactAudioCopy v0.90b4
#
DISCID=8210930a
DTITLE=Taj Mahal - 1-16-71 Fillmore, San Francisco, CA
DYEAR=1971
DGENRE=Blues
TTITLE0=I'm So Tired
TTITLE1=Banjo Instrumental
TTITLE2=Good Morning Miss Brown
TTITLE3=Ain't Gwine Whistle Dixie Any Mo'
TTITLE4=Sweet Mama Janisse
TTITLE5=Going Up to the Country and Paint My Mailbox Blue
TTITLE6=You Will Accompany Me
TTITLE7=You Ain't No Street Walker Mama
TTITLE8=Diving Duck Blues
TTITLE9=Corinna
EXTD=
EXTT0=
EXTT1=
EXTT2=
EXTT3=
EXTT4=
EXTT5=
EXTT6=
EXTT7=
EXTT8=
EXTT9=
PLAYORDER=
